<svg xmlns="http://www.w3.org/2000/svg" viewBox="0 0 140 50">
    <defs>
        <style>.cls-17{fill:#fff}</style>
        <filter id="luminosity-noclip" x="-31.22" y="-8217" width="110.08" height="32766" filterUnits="userSpaceOnUse"
                color-interpolation-filters="sRGB">
            <feFlood flood-color="#fff" result="bg"/>
            <feBlend in="SourceGraphic" in2="bg"/>
        </filter>
        <linearGradient id="linear-gradient" x1="-59.91" y1="56.55" x2="54.6" y2="56.55"
                        gradientTransform="rotate(-11.35 -118.19487187 -98.126649)" gradientUnits="userSpaceOnUse">
            <stop offset=".2"/>
            <stop offset=".28" stop-color="#040404"/>
            <stop offset=".35" stop-color="#101010"/>
            <stop offset=".42" stop-color="#232323"/>
            <stop offset=".49" stop-color="#3f3f3f"/>
            <stop offset=".56" stop-color="#626262"/>
            <stop offset=".63" stop-color="#8e8e8e"/>
            <stop offset=".7" stop-color="#c1c1c1"/>
            <stop offset=".77" stop-color="#fcfcfc"/>
            <stop offset=".77" stop-color="#fff"/>
            <stop offset=".86" stop-color="#fff"/>
            <stop offset=".95" stop-color="#fff"/>
        </linearGradient>
        <filter id="luminosity-noclip-2" x="-5.9" y="-8217" width="29.04" height="32766" filterUnits="userSpaceOnUse"
                color-interpolation-filters="sRGB">
            <feFlood flood-color="#fff" result="bg"/>
            <feBlend in="SourceGraphic" in2="bg"/>
        </filter>
        <linearGradient id="linear-gradient-2" x1="-256.61" y1="309.19" x2="-240.29" y2="262.6"
                        gradientTransform="matrix(-.17 -.59 .49 -.11 -175.64 -72.45)" gradientUnits="userSpaceOnUse">
            <stop offset="0" stop-color="#fff"/>
            <stop offset=".33" stop-color="#999"/>
            <stop offset=".37" stop-color="#868686"/>
            <stop offset=".47" stop-color="#5d5d5d"/>
            <stop offset=".57" stop-color="#3c3c3c"/>
            <stop offset=".67" stop-color="#212121"/>
            <stop offset=".77" stop-color="#0f0f0f"/>
            <stop offset=".88" stop-color="#040404"/>
            <stop offset="1"/>
        </linearGradient>
        <clipPath id="clip-path">
            <path d="M38.09 43.5c.21-5.87-1.49-10.87-6.69-15.18 8.52-1.23 14.07 2 16.12 15a11.06 11.06 0 0 1-9.43.18zM22.67 50C33.83 42.89 34.54 36.52 30 29.2c-1.86 6.49-5.76 10.06-11.23 12.21a11.09 11.09 0 0 0 3.9 8.59zm4.56-21.67C17.15 20.55 7.27 23.46 0 37.19c10.85 6.45 23.15 5.23 27.47-8.08l-4.61 1.35-4.07 6.9 3-6.6-5.24 1.53v.06l-3.39 5.71 2.34-5.46-4.09 1.2-.07.14-2.56 4.11 1.58-3.95-8.78 2.57 8.81-2.87-2.8-2.74 3.64 2.37.09.07 4.18-1.36-4-3.62 5 3.32 5.33-1.73-4.94-4.33 5.85 4zm1.57-3.78C34.06 13 28.75 3.94 13.72 0c-3.78 12 .43 23.8 14.37 25l-2.37-4.18-7.64-2.42 7.1 1.43-2.69-4.76h-.06l-6.33-2 5.85 1-2.1-3.71h-.16l-4.58-1.54 4.2.63-4.51-8 4.81 7.93 2-3.36-1.48 4.09v.1L22.4 14 25 9.25l-2.1 5.59 2.91 4.79 3.09-5.8-2.59 6.62zm3.35 2c12.08 4 20.67-2.36 23-17.72C42.79 6.3 31.35 11.9 31.62 25.9l3.92-2.79 1.58-7.85-.68 7.22 4.45-3.17v-.06l1.33-6.5-.44 5.92 3.47-2.46v-.16l1.08-4.73-.2 4.25 7.45-5.3-7.39 5.6 3.55 1.67-4.22-1.05h-.1L42 19.07l5 2.09-5.77-1.5L36.74 23l6.08 2.48L36 23.62z"
                  fill="none" clip-rule="evenodd"/>
        </clipPath>
        <radialGradient id="未命名的渐变_203" cx="-5.98" cy="-19.68" r="50.3"
                        gradientTransform="matrix(1.05 0 0 1.01 30.82 -2.74)" gradientUnits="userSpaceOnUse">
            <stop offset="0" stop-color="#b9d9f0"/>
            <stop offset=".05" stop-color="#9ad3f0"/>
            <stop offset=".16" stop-color="#59c5ee"/>
            <stop offset=".26" stop-color="#29bbee"/>
            <stop offset=".33" stop-color="#0bb4ed"/>
            <stop offset=".37" stop-color="#00b2ed"/>
            <stop offset=".47" stop-color="#0babed"/>
            <stop offset=".81" stop-color="#2c94ed"/>
            <stop offset="1" stop-color="#398bed"/>
        </radialGradient>
        <radialGradient id="未命名的渐变_228" cx="-14.22" cy="12.07" r="30.25" gradientTransform="translate(22.71 -2.25)"
                        gradientUnits="userSpaceOnUse">
            <stop offset="0" stop-color="#3b87b3"/>
            <stop offset=".64" stop-color="#1281df"/>
            <stop offset="1" stop-color="#007ef2"/>
        </radialGradient>
        <filter id="luminosity-noclip-3" x="-31.22" y="5.61" width="110.08" height="41.19" filterUnits="userSpaceOnUse"
                color-interpolation-filters="sRGB">
            <feFlood flood-color="#fff" result="bg"/>
            <feBlend in="SourceGraphic" in2="bg"/>
        </filter>
        <mask id="mask-3" x="-31.22" y="5.61" width="110.08" height="41.19" maskUnits="userSpaceOnUse">
            <g mask="url(#mask)" filter="url(#luminosity-noclip-3)">
                <path d="M-31.22 39s25.27 11 53 6.86C50.62 41.6 71.91 26.12 78.86 5.61c-14 21.8-34.49 29.07-53.59 32.76C12 41-.7 40.53-28.44 35"
                      style="mix-blend-mode:multiply" fill="url(#linear-gradient)"/>
            </g>
        </mask>
        <linearGradient id="linear-gradient-3" x1="-23.96" y1="62.68" x2="29.28" y2="62.68"
                        gradientTransform="rotate(-11.35 -118.19487187 -98.126649)" gradientUnits="userSpaceOnUse">
            <stop offset=".2" stop-color="#f26a1d"/>
            <stop offset=".52" stop-color="#f66b1c"/>
            <stop offset=".77" stop-color="#ff6c1a"/>
            <stop offset=".8" stop-color="#ff741a"/>
            <stop offset=".84" stop-color="#ff8b1a"/>
            <stop offset=".86" stop-color="#ff941a"/>
            <stop offset=".89" stop-color="#ffaa2b"/>
            <stop offset=".92" stop-color="#ffb937"/>
            <stop offset=".95" stop-color="#ffbe3b"/>
        </linearGradient>
        <linearGradient id="linear-gradient-4" x1="-10.33" y1="42.11" x2="27.4" y2="11.56"
                        gradientTransform="translate(22.71 -2.25)" gradientUnits="userSpaceOnUse">
            <stop offset=".58" stop-color="#f25800"/>
            <stop offset=".63" stop-color="#f46001"/>
            <stop offset=".71" stop-color="#fa7702"/>
            <stop offset=".76" stop-color="#ff8903"/>
            <stop offset=".81" stop-color="#ff930a"/>
            <stop offset=".91" stop-color="#ffaf1f"/>
            <stop offset=".93" stop-color="#ffb624"/>
        </linearGradient>
        <filter id="luminosity-noclip-4" x="-5.9" y="37.33" width="29.04" height="8.57" filterUnits="userSpaceOnUse"
                color-interpolation-filters="sRGB">
            <feFlood flood-color="#fff" result="bg"/>
            <feBlend in="SourceGraphic" in2="bg"/>
        </filter>
        <mask id="mask-4" x="-5.9" y="37.33" width="29.04" height="8.57" maskUnits="userSpaceOnUse">
            <g mask="url(#mask-2)" filter="url(#luminosity-noclip-4)">
                <path d="M-5.9 43.08A36.67 36.67 0 0 0 6.41 45.9c6.59.1 16.73-4.65 16.73-4.65a119.63 119.63 0 0 1-16.9 0 24 24 0 0 1-10-3.92"
                      style="mix-blend-mode:multiply" fill="url(#linear-gradient-2)"/>
            </g>
        </mask>
        <linearGradient id="linear-gradient-5" x1="-254.62" y1="317.26" x2="-252.12" y2="310.13"
                        gradientTransform="matrix(-.17 -.59 .49 -.11 -175.64 -72.45)" gradientUnits="userSpaceOnUse">
            <stop offset="0" stop-color="#ffb805"/>
            <stop offset=".33" stop-color="#f18903"/>
            <stop offset=".48" stop-color="#e77002"/>
            <stop offset=".65" stop-color="#df5e01"/>
            <stop offset=".81" stop-color="#db5300"/>
            <stop offset="1" stop-color="#d94f00"/>
        </linearGradient>
        <radialGradient id="未命名的渐变_403" cx="29.5" cy="26.9" r="5.77" gradientUnits="userSpaceOnUse">
            <stop offset="0" stop-color="#ffc800"/>
            <stop offset=".4" stop-color="#ff8903"/>
            <stop offset=".58" stop-color="#fc7f02"/>
            <stop offset=".89" stop-color="#f56301"/>
            <stop offset="1" stop-color="#f25800"/>
        </radialGradient>
    </defs>
    <g style="isolation:isolate">
        <g id="图层_1" data-name="图层 1">
            <g clip-path="url(#clip-path)">
                <ellipse cx="24.74" cy="4.49" rx="31.07" ry="29.64" transform="rotate(-2.59 24.68233412 4.54126798)"
                         fill="url(#未命名的渐变_203)"/>
                <path d="M13.73 33.11c-1.91-1.76-3.87-9-3.08-9.46s4 4 5.48 3.83c.62 0 4.27-.6 1.68-3.54S14.25 15.22 15 15s2.26 2.55 3.23 1.49c.67-.74 3.15-1.9 4.6-2.55a.48.48 0 0 1 .65.59c-.45 1.27-.79 3.1 1.39 2.17 3.21-1.37 5.82-6.8 7.86-6.89s.76 7.72 3.53 6 1.63-6.2 2.4-7.33 3.92-.58 8.32.58 1.25 6.66 3.68 6.09c8.25-1.91-7 11.92-6.17 12.69"
                      fill="url(#未命名的渐变_228)"/>
                <path d="M55.46 13.66C53.89 15.16 45.4 26 40.73 28.07s-18 3-18 3c-9 .58-15.38-1.92-16.34-2.88l-8.46 2.31S-14.82 59.07 55.79 48z"
                      fill="#f15a24"/>
                <g mask="url(#mask-3)">
                    <path d="M20.23 46.63a94.65 94.65 0 0 0 26.29-8l9.85-16.42-12.3 11c-7.29 3-13.06 3.65-18.8 5.19-13.11 3.49-17.73 1.5-19.65 1.5"
                          opacity=".76" fill="url(#linear-gradient-3)"/>
                </g>
                <path d="M55.52 13.61A35.6 35.6 0 0 0 47.85 20c-2.48 3.08-4.69 7.57-14.41 9.37s-13.1 2.36-22.1 1.95-.1 3.82-.1 3.82 14.84-1.7 22.87-3c9.87-1.53 14-7.75 15.76-9.56 2.6-2.66 5.65-8.97 5.65-8.97z"
                      fill="url(#linear-gradient-4)"/>
                <g mask="url(#mask-4)">
                    <path d="M18.69 43a8.17 8.17 0 0 0 4.45-1.73s-3.1.58-4.45.19" style="mix-blend-mode:screen"
                          opacity=".2" fill="url(#linear-gradient-5)"/>
                </g>
            </g>
            <circle cx="29.5" cy="26.9" r="5.77" stroke="#fff" stroke-miterlimit="10" stroke-width="2"
                    fill="url(#未命名的渐变_403)"/>
            <path class="cls-17"
                  d="M26.34 27.86l.78-.07v.08a.58.58 0 0 0 .13.43.4.4 0 0 0 .33.15.66.66 0 0 0 .52-.28 1.1 1.1 0 0 0 .24-.76.67.67 0 0 0-.13-.43.46.46 0 0 0-.36-.15.67.67 0 0 0-.3.08 1 1 0 0 0-.29.22l-.66-.05.63-2.08h2.07l-.15.74h-1.37l-.19.63.24-.08h.23a1 1 0 0 1 .78.32 1.18 1.18 0 0 1 .3.85 1.83 1.83 0 0 1-.21.84 1.54 1.54 0 0 1-1.38.86 1.18 1.18 0 0 1-.87-.34 1.26 1.26 0 0 1-.34-.96zM30.26 29h-.85l.87-4.13H32a1.92 1.92 0 0 1 .71.11.83.83 0 0 1 .41.35 1 1 0 0 1 .16.58 1.46 1.46 0 0 1-.13.61 1.35 1.35 0 0 1-.29.47 1.33 1.33 0 0 1-.38.27 2.08 2.08 0 0 1-.55.14 6 6 0 0 1-.75 0h-.54zm.47-2.26H31a3 3 0 0 0 .9-.08.82.82 0 0 0 .36-.27.76.76 0 0 0 .13-.41.43.43 0 0 0-.07-.24.34.34 0 0 0-.19-.14 1.8 1.8 0 0 0-.53-.05H31z"/>
            <g id="_.comText" data-name=".comText">
                <rect id="_.comBackground" data-name=".comBackground" x="107.85" y="13.07" width="25.11" height="6.76"
                      rx="3.11" ry="3.11" fill="#e6e6e6"/>
                <path d="M111.58 17h1.47v1.38h-1.47zM116.57 17l1.31.14a1.83 1.83 0 0 1-.36.71 1.58 1.58 0 0 1-.63.47 2.51 2.51 0 0 1-1 .16 3.64 3.64 0 0 1-1-.1 1.64 1.64 0 0 1-.65-.35 1.56 1.56 0 0 1-.43-.56 1.84 1.84 0 0 1-.16-.85 1.93 1.93 0 0 1 .19-.92 1.75 1.75 0 0 1 .38-.49 1.79 1.79 0 0 1 .49-.32 2.81 2.81 0 0 1 1-.16 2.39 2.39 0 0 1 1.34.31 1.69 1.69 0 0 1 .65.92l-1.3.18a.63.63 0 0 0-.22-.35.71.71 0 0 0-.43-.12.69.69 0 0 0-.56.25 1.11 1.11 0 0 0-.21.74 1 1 0 0 0 .21.67.71.71 0 0 0 .54.23.73.73 0 0 0 .45-.14.82.82 0 0 0 .39-.42zM118.34 16.58a1.82 1.82 0 0 1 .56-1.36 2.42 2.42 0 0 1 3.13.09 1.85 1.85 0 0 1 .44 1.25 1.77 1.77 0 0 1-.55 1.35A2.45 2.45 0 0 1 119 18a1.74 1.74 0 0 1-.66-1.42zm1.38 0a1.07 1.07 0 0 0 .2.71.64.64 0 0 0 1 0 1.12 1.12 0 0 0 .19-.73 1.08 1.08 0 0 0-.19-.7.64.64 0 0 0-1 0 1.06 1.06 0 0 0-.2.71zM123.14 14.77h1.29v.52a1.65 1.65 0 0 1 .56-.46 1.45 1.45 0 0 1 .68-.14 1.29 1.29 0 0 1 .68.15 1.06 1.06 0 0 1 .41.45 2.48 2.48 0 0 1 .59-.48 1.62 1.62 0 0 1 .66-.12 1.19 1.19 0 0 1 .91.34 1.57 1.57 0 0 1 .32 1.08v2.25h-1.38v-2a.55.55 0 0 0-.1-.37.41.41 0 0 0-.34-.18.51.51 0 0 0-.39.17.88.88 0 0 0-.15.57v1.85h-1.38v-2a1.17 1.17 0 0 0 0-.32.48.48 0 0 0-.15-.22.44.44 0 0 0-.25-.08.48.48 0 0 0-.39.18.87.87 0 0 0-.16.59v1.83h-1.38z"/>
            </g>
            <path d="M117.86 39.66l-5.19-5.19v5.19h-1.79V25.85h1.79v5.2l5.19-5.2h2.54l-6.91 6.91 6.91 6.9zm-32-13.81h3a4.92 4.92 0 0 1 0 9.84h-3v4h-3.17V25.85h3.13zm0 6.71h3a1.79 1.79 0 0 0 1.78-1.79A1.78 1.78 0 0 0 88.77 29h-3zm-4.76 7.1V25.85h-3.28l-4.15 8-1.37-8H69l-4.72 13.81h3.17l2.61-7.55.25 1.51 1 6H74l.49-1 2.82-5.45.58-1.11v7.55zm-23-13.81h3a4.92 4.92 0 0 1 0 9.84h-3v4h-3.16V25.85h3.13zm0 6.71h3a1.75 1.75 0 0 0 1.18-.56 1.79 1.79 0 0 0 .53-1.26 1.81 1.81 0 0 0-.53-1.26A1.78 1.78 0 0 0 61 29h-3zm74.8-6.71v8.44a5.36 5.36 0 0 1-5.37 5.37H127a5.38 5.38 0 0 1-5.37-5.37v-8.44h1.79v8.44a3.6 3.6 0 0 0 3.58 3.58h.52a3.58 3.58 0 0 0 3.58-3.58v-8.44zm-25.56 0v13.81h-1.79V25.85zm-13.34 0h10v1.79h-4.17v12H98v-12h-4z"
                  fill-rule="evenodd" fill="#fff"/>
        </g>
    </g>
</svg>